<?xml version="1.0" ?><!DOCTYPE svg  PUBLIC '-//W3C//DTD SVG 1.1//EN'  'http://www.w3.org/Graphics/SVG/1.1/DTD/svg11.dtd'><svg height="128px" id="Layer_1" style="enable-background:new 0 0 128 128;" version="1.1" viewBox="0 0 128 128" width="128px" xml:space="preserve" xmlns="http://www.w3.org/2000/svg" xmlns:xlink="http://www.w3.org/1999/xlink"><style type="text/css">
<![CDATA[
	.st0{fill-rule:evenodd;clip-rule:evenodd;}
]]>
</style><path d="M64.004,8.689C33.457,8.689,8.688,33.452,8.688,64c0,22.65,13.621,42.109,33.11,50.663  c-0.153-3.867-0.025-8.502,0.958-12.699c1.07-4.497,7.123-30.147,7.123-30.147s-1.772-3.528-1.772-8.748  c0-8.193,4.758-14.316,10.677-14.316c5.022,0,7.457,3.776,7.457,8.299c0,5.059-3.23,12.625-4.884,19.629  c-1.39,5.867,2.941,10.652,8.721,10.652c10.483,0,17.54-13.454,17.54-29.404c0-12.121-8.158-21.192-23.012-21.192  c-16.777,0-27.229,12.508-27.229,26.481c0,4.821,1.421,8.22,3.646,10.853c1.026,1.21,1.167,1.691,0.789,3.081  c-0.255,1.021-0.863,3.469-1.119,4.437c-0.373,1.409-1.503,1.903-2.771,1.385c-7.728-3.149-11.327-11.613-11.327-21.127  c0-15.709,13.248-34.554,39.532-34.554c21.115,0,35.019,15.283,35.019,31.687c0,21.697-12.07,37.904-29.847,37.904  c-5.977,0-11.594-3.229-13.512-6.89c0,0-3.214,12.743-3.892,15.207c-1.172,4.254-3.471,8.527-5.567,11.847  c4.969,1.466,10.225,2.264,15.675,2.264c30.541,0,55.306-24.76,55.306-55.311C119.31,33.452,94.545,8.689,64.004,8.689z"/></svg>